<svg width="15" height="15" viewBox="0 0 15 15" fill="none" xmlns="http://www.w3.org/2000/svg">
<path d="M5.97656 7.03125H1.99219C1.71247 7.03125 1.4442 6.92013 1.24641 6.72234C1.04862 6.52455 0.9375 6.25628 0.9375 5.97656V1.99219C0.9375 1.71247 1.04862 1.4442 1.24641 1.24641C1.4442 1.04862 1.71247 0.9375 1.99219 0.9375H5.97656C6.25628 0.9375 6.52455 1.04862 6.72234 1.24641C6.92013 1.4442 7.03125 1.71247 7.03125 1.99219V5.97656C7.03125 6.25628 6.92013 6.52455 6.72234 6.72234C6.52455 6.92013 6.25628 7.03125 5.97656 7.03125ZM13.0078 7.03125H9.02344C8.74372 7.03125 8.47545 6.92013 8.27766 6.72234C8.07987 6.52455 7.96875 6.25628 7.96875 5.97656V1.99219C7.96875 1.71247 8.07987 1.4442 8.27766 1.24641C8.47545 1.04862 8.74372 0.9375 9.02344 0.9375H13.0078C13.2875 0.9375 13.5558 1.04862 13.7536 1.24641C13.9514 1.4442 14.0625 1.71247 14.0625 1.99219V5.97656C14.0625 6.25628 13.9514 6.52455 13.7536 6.72234C13.5558 6.92013 13.2875 7.03125 13.0078 7.03125ZM5.97656 14.0625H1.99219C1.71247 14.0625 1.4442 13.9514 1.24641 13.7536C1.04862 13.5558 0.9375 13.2875 0.9375 13.0078V9.02344C0.9375 8.74372 1.04862 8.47545 1.24641 8.27766C1.4442 8.07987 1.71247 7.96875 1.99219 7.96875H5.97656C6.25628 7.96875 6.52455 8.07987 6.72234 8.27766C6.92013 8.47545 7.03125 8.74372 7.03125 9.02344V13.0078C7.03125 13.2875 6.92013 13.5558 6.72234 13.7536C6.52455 13.9514 6.25628 14.0625 5.97656 14.0625ZM13.0078 14.0625H9.02344C8.74372 14.0625 8.47545 13.9514 8.27766 13.7536C8.07987 13.5558 7.96875 13.2875 7.96875 13.0078V9.02344C7.96875 8.74372 8.07987 8.47545 8.27766 8.27766C8.47545 8.07987 8.74372 7.96875 9.02344 7.96875H13.0078C13.2875 7.96875 13.5558 8.07987 13.7536 8.27766C13.9514 8.47545 14.0625 8.74372 14.0625 9.02344V13.0078C14.0625 13.2875 13.9514 13.5558 13.7536 13.7536C13.5558 13.9514 13.2875 14.0625 13.0078 14.0625Z" fill="white"/>
</svg>
